<svg id="Layer_1" data-name="Layer 1" xmlns="http://www.w3.org/2000/svg" viewBox="0 0 109 49"><title>AGa ori size svg</title><path d="M91.18,2.05h-8.9L64.26,47H76.38l3.28-6.51H94.07L97,47h12Zm-8.9,29.06,4.35-14.85L91,31.11Z" fill="#0956a6"/><path d="M26.92,2.05H18L0,47H12.13l3.28-6.51H29.82L32.76,47h12ZM18,31.11l4.35-14.85,4.35,14.85Z" fill="#0956a6"/><path d="M33.56,14.52c0-4.11,9-13.12,20.91-13.12C66.18,1.4,75.38,10,75.38,13.7L74,17.32H64.81S61.32,11.5,54.5,11.5s-12,4.76-12,12.28,4.15,13.87,12.39,13.87S65,32.13,65,30.53H52v-9H72.79L62.07,47s-9.86,1.5-15.47-.26Z" fill="#aa232c"/></svg>